<svg width="1219" height="307" viewBox="0 0 1219 307" fill="none" xmlns="http://www.w3.org/2000/svg">
<rect width="1218.12" height="306.282" fill="white"/>
<path d="M93.1159 144.783L175.116 244.283L51.1159 265.783L93.1159 144.783Z" fill="#150552"/>
<path d="M80.9345 50.3163L222.616 50.3164L165.616 175.783L80.9345 50.3163Z" fill="#0D13A4"/>
<path d="M281.053 207.782H263.036V108.818H330.536C337.333 108.818 343.719 110.136 349.696 112.773C355.673 115.351 360.887 118.896 365.34 123.407C369.794 127.861 373.309 133.105 375.887 139.14C378.465 145.116 379.755 151.503 379.755 158.3V207.782H361.737V158.3C361.737 153.964 360.917 149.892 359.276 146.083C357.635 142.275 355.409 138.964 352.596 136.152C349.784 133.281 346.473 131.025 342.665 129.384C338.915 127.685 334.872 126.806 330.536 126.747H281.053V207.782ZM519.061 207.782H451.561C444.764 207.782 438.378 206.493 432.401 203.915C426.424 201.279 421.21 197.734 416.757 193.281C412.362 188.769 408.876 183.525 406.298 177.548C403.719 171.513 402.43 165.097 402.43 158.3V108.818H420.448V158.3C420.448 162.636 421.239 166.708 422.821 170.517C424.462 174.267 426.688 177.577 429.501 180.448C432.313 183.261 435.594 185.517 439.344 187.216C443.153 188.857 447.225 189.706 451.561 189.765H501.044V108.818H519.061V207.782ZM563.007 207.782H544.989V108.818H639.911C646.708 108.818 653.094 110.136 659.071 112.773C665.048 115.351 670.233 118.896 674.628 123.407C679.081 127.861 682.596 133.105 685.174 139.14C687.753 145.116 689.042 151.503 689.042 158.3V207.782H671.024V158.3C671.024 153.964 670.204 149.892 668.563 146.083C666.923 142.275 664.696 138.964 661.883 136.152C659.071 133.281 655.76 131.025 651.952 129.384C648.202 127.685 644.188 126.806 639.911 126.747H626.024V207.782H608.007V126.747H563.007V207.782ZM828.612 140.282C828.612 144.677 827.792 148.779 826.151 152.587C824.51 156.396 822.255 159.736 819.383 162.607C816.571 165.419 813.231 167.646 809.364 169.286C805.555 170.927 801.483 171.747 797.147 171.747H728.153C729.442 174.384 731.053 176.816 732.987 179.042C734.921 181.269 737.089 183.173 739.491 184.755C741.893 186.337 744.501 187.568 747.313 188.447C750.184 189.325 753.173 189.765 756.278 189.765H815.165V207.782H756.278C749.481 207.724 743.094 206.406 737.118 203.827C731.141 201.191 725.926 197.646 721.473 193.193C717.079 188.681 713.592 183.437 711.014 177.46C708.436 171.484 707.147 165.097 707.147 158.3C707.147 151.503 708.436 145.116 711.014 139.14C713.592 133.163 717.079 127.948 721.473 123.495C725.926 118.984 731.141 115.439 737.118 112.861C743.094 110.224 749.481 108.876 756.278 108.818H797.147C801.483 108.818 805.555 109.638 809.364 111.279C813.231 112.919 816.571 115.175 819.383 118.046C822.255 120.859 824.51 124.169 826.151 127.978C827.792 131.786 828.612 135.888 828.612 140.282ZM797.147 153.818C798.964 153.818 800.692 153.466 802.333 152.763C803.973 152.06 805.409 151.093 806.639 149.863C807.87 148.632 808.837 147.197 809.54 145.556C810.243 143.915 810.594 142.157 810.594 140.282C810.594 138.466 810.243 136.738 809.54 135.097C808.837 133.456 807.87 132.021 806.639 130.79C805.409 129.56 803.973 128.593 802.333 127.89C800.692 127.128 798.964 126.747 797.147 126.747H756.278C752.294 126.747 748.544 127.45 745.028 128.857C741.571 130.263 738.465 132.197 735.712 134.657C733.016 137.06 730.76 139.931 728.944 143.271C727.186 146.552 726.044 150.068 725.516 153.818H797.147ZM961.503 140.282C961.503 144.677 960.682 148.779 959.042 152.587C957.401 156.396 955.145 159.736 952.274 162.607C949.462 165.419 946.122 167.646 942.255 169.286C938.446 170.927 934.374 171.747 930.038 171.747H861.044C862.333 174.384 863.944 176.816 865.878 179.042C867.811 181.269 869.979 183.173 872.382 184.755C874.784 186.337 877.391 187.568 880.204 188.447C883.075 189.325 886.063 189.765 889.169 189.765H948.055V207.782H889.169C882.372 207.724 875.985 206.406 870.008 203.827C864.032 201.191 858.817 197.646 854.364 193.193C849.969 188.681 846.483 183.437 843.905 177.46C841.327 171.484 840.038 165.097 840.038 158.3C840.038 151.503 841.327 145.116 843.905 139.14C846.483 133.163 849.969 127.948 854.364 123.495C858.817 118.984 864.032 115.439 870.008 112.861C875.985 110.224 882.372 108.876 889.169 108.818H930.038C934.374 108.818 938.446 109.638 942.255 111.279C946.122 112.919 949.462 115.175 952.274 118.046C955.145 120.859 957.401 124.169 959.042 127.978C960.682 131.786 961.503 135.888 961.503 140.282ZM930.038 153.818C931.854 153.818 933.583 153.466 935.223 152.763C936.864 152.06 938.299 151.093 939.53 149.863C940.76 148.632 941.727 147.197 942.43 145.556C943.133 143.915 943.485 142.157 943.485 140.282C943.485 138.466 943.133 136.738 942.43 135.097C941.727 133.456 940.76 132.021 939.53 130.79C938.299 129.56 936.864 128.593 935.223 127.89C933.583 127.128 931.854 126.747 930.038 126.747H889.169C885.184 126.747 881.434 127.45 877.919 128.857C874.462 130.263 871.356 132.197 868.602 134.657C865.907 137.06 863.651 139.931 861.835 143.271C860.077 146.552 858.934 150.068 858.407 153.818H930.038ZM1077.52 126.747H1010.02C1008.14 126.747 1006.39 127.128 1004.74 127.89C1003.1 128.593 1001.67 129.56 1000.44 130.79C999.208 132.021 998.241 133.456 997.538 135.097C996.835 136.738 996.483 138.466 996.483 140.282V207.782H978.465V140.282C978.465 135.888 979.286 131.786 980.926 127.978C982.567 124.169 984.823 120.859 987.694 118.046C990.565 115.175 993.905 112.919 997.714 111.279C1001.52 109.638 1005.62 108.818 1010.02 108.818H1077.52V126.747ZM1210.5 158.3C1210.5 165.097 1209.21 171.484 1206.63 177.46C1204.05 183.437 1200.54 188.681 1196.08 193.193C1191.69 197.646 1186.5 201.191 1180.53 203.827C1174.55 206.406 1168.16 207.724 1161.37 207.782H1133.68C1126.88 207.724 1120.5 206.406 1114.52 203.827C1108.54 201.191 1103.33 197.646 1098.88 193.193C1094.48 188.681 1090.99 183.437 1088.42 177.46C1085.84 171.484 1084.55 165.097 1084.55 158.3C1084.55 151.503 1085.84 145.116 1088.42 139.14C1090.99 133.105 1094.48 127.861 1098.88 123.407C1103.33 118.896 1108.54 115.351 1114.52 112.773C1120.5 110.136 1126.88 108.818 1133.68 108.818H1161.37C1165.88 108.818 1170.24 109.404 1174.46 110.575C1178.68 111.747 1182.61 113.417 1186.24 115.585C1189.87 117.753 1193.18 120.361 1196.17 123.407C1199.16 126.396 1201.71 129.736 1203.82 133.427C1205.93 137.06 1207.57 140.986 1208.74 145.204C1209.91 149.423 1210.5 153.788 1210.5 158.3ZM1192.57 158.3C1192.57 153.964 1191.75 149.892 1190.11 146.083C1188.47 142.275 1186.24 138.964 1183.43 136.152C1180.61 133.281 1177.3 131.025 1173.49 129.384C1169.74 127.685 1165.7 126.806 1161.37 126.747H1133.68C1129.34 126.806 1125.27 127.685 1121.46 129.384C1117.71 131.025 1114.43 133.281 1111.62 136.152C1108.81 138.964 1106.58 142.275 1104.94 146.083C1103.36 149.892 1102.57 153.964 1102.57 158.3C1102.57 162.636 1103.36 166.708 1104.94 170.517C1106.58 174.325 1108.81 177.665 1111.62 180.536C1114.43 183.349 1117.71 185.605 1121.46 187.304C1125.27 188.945 1129.34 189.765 1133.68 189.765H1161.37C1165.7 189.765 1169.74 188.945 1173.49 187.304C1177.3 185.605 1180.61 183.349 1183.43 180.536C1186.24 177.665 1188.47 174.325 1190.11 170.517C1191.75 166.708 1192.57 162.636 1192.57 158.3Z" fill="#14111F"/>
</svg>
